<?xml version="1.0" encoding="UTF-8" standalone="no"?>
<svg
   id="svg6649"
   height="32"
   width="32"
   version="1.1"
   sodipodi:docname="git.svg"
   inkscape:version="1.4.2 (ebf0e940d0, 2025-05-08)"
   xmlns:inkscape="http://www.inkscape.org/namespaces/inkscape"
   xmlns:sodipodi="http://sodipodi.sourceforge.net/DTD/sodipodi-0.dtd"
   xmlns:xlink="http://www.w3.org/1999/xlink"
   xmlns="http://www.w3.org/2000/svg"
   xmlns:svg="http://www.w3.org/2000/svg"
   xmlns:rdf="http://www.w3.org/1999/02/22-rdf-syntax-ns#"
   xmlns:cc="http://creativecommons.org/ns#"
   xmlns:dc="http://purl.org/dc/elements/1.1/">
  <sodipodi:namedview
     id="namedview1"
     pagecolor="#ffffff"
     bordercolor="#000000"
     borderopacity="0.25"
     inkscape:showpageshadow="2"
     inkscape:pageopacity="0.0"
     inkscape:pagecheckerboard="0"
     inkscape:deskcolor="#d1d1d1"
     showgrid="false"
     inkscape:zoom="27.943365"
     inkscape:cx="27.967283"
     inkscape:cy="14.099948"
     inkscape:window-width="2560"
     inkscape:window-height="1373"
     inkscape:window-x="0"
     inkscape:window-y="0"
     inkscape:window-maximized="1"
     inkscape:current-layer="svg6649">
    <inkscape:grid
       id="grid2"
       units="px"
       originx="0"
       originy="0"
       spacingx="1"
       spacingy="1"
       empcolor="#0099e5"
       empopacity="0.30196078"
       color="#0099e5"
       opacity="0.14901961"
       empspacing="16"
       enabled="true"
       visible="false" />
  </sodipodi:namedview>
  <defs
     id="defs6651">
    <linearGradient
       id="linearGradient1210">
      <stop
         style="stop-color:#f15132;stop-opacity:1"
         offset="0"
         id="stop1206" />
      <stop
         style="stop-color:#ef6b52;stop-opacity:1"
         offset="1"
         id="stop1208" />
    </linearGradient>
    <linearGradient
       id="linearGradient1078">
      <stop
         id="stop1070"
         style="stop-color:#ffffff;stop-opacity:1"
         offset="0" />
      <stop
         id="stop1072"
         style="stop-color:#ffffff;stop-opacity:0.23529412"
         offset="0.47500002" />
      <stop
         id="stop1074"
         style="stop-color:#ffffff;stop-opacity:0.15686275"
         offset="0.77500004" />
      <stop
         id="stop1076"
         style="stop-color:#ffffff;stop-opacity:0.39215687"
         offset="1" />
    </linearGradient>
    <radialGradient
       cx="99.157013"
       cy="186.17059"
       r="62.769119"
       fx="99.157013"
       fy="186.17059"
       id="radialGradient3108"
       xlink:href="#linearGradient3820-7-2-2"
       gradientUnits="userSpaceOnUse"
       gradientTransform="matrix(0.21472742,0,0,0.06794726,-5.2917311,15.085235)" />
    <linearGradient
       id="linearGradient3820-7-2-2">
      <stop
         offset="0"
         style="stop-color:#3d3d3d;stop-opacity:1"
         id="stop3822-2-6-36" />
      <stop
         offset="0.5"
         style="stop-color:#686868;stop-opacity:0.49803922"
         id="stop3864-8-7-6" />
      <stop
         offset="1"
         style="stop-color:#686868;stop-opacity:0"
         id="stop3824-1-2-4" />
    </linearGradient>
    <linearGradient
       inkscape:collect="always"
       xlink:href="#linearGradient1078"
       id="linearGradient2"
       gradientUnits="userSpaceOnUse"
       gradientTransform="matrix(4.0995253,0,0,4.0769398,-279.94897,-55.681226)"
       x1="71.769058"
       y1="11.558571"
       x2="75.895889"
       y2="15.708265" />
    <linearGradient
       xlink:href="#linearGradient1210"
       id="linearGradient1212-0"
       x1="48.748684"
       y1="12.826026"
       x2="20.083403"
       y2="-15.838556"
       gradientUnits="userSpaceOnUse"
       gradientTransform="matrix(0.69664915,0,0,0.69666609,-1.4450703,1.0305648)" />
    <linearGradient
       inkscape:collect="always"
       xlink:href="#linearGradient1210"
       id="linearGradient3"
       gradientUnits="userSpaceOnUse"
       gradientTransform="matrix(0.69664915,0,0,0.69666609,-1.4450703,1.0305648)"
       x1="48.748684"
       y1="12.826026"
       x2="20.083403"
       y2="-15.838556" />
  </defs>
  <metadata
     id="metadata6654">
    <rdf:RDF>
      <cc:Work
         rdf:about="">
        <dc:format>image/svg+xml</dc:format>
        <dc:type
           rdf:resource="http://purl.org/dc/dcmitype/StillImage" />
      </cc:Work>
    </rdf:RDF>
  </metadata>
  <path
     d="m 29.47825,27.735011 a 13.478251,4.2649887 0 0 1 -26.9565021,0 13.478251,4.2649887 0 1 1 26.9565021,0 z"
     id="path3818-0-2-5"
     style="opacity:0.5;fill:url(#radialGradient3108);fill-opacity:1;stroke:none;stroke-width:1" />
  <rect
     style="font-variation-settings:normal;vector-effect:none;fill:url(#linearGradient1212-0);fill-opacity:1;stroke:#a41a00;stroke-width:0.999998;stroke-linecap:butt;stroke-linejoin:miter;stroke-miterlimit:4;stroke-dasharray:none;stroke-dashoffset:0;stroke-opacity:0.5;-inkscape-stroke:none;marker:none;paint-order:normal;stop-color:#000000"
     id="rect1-1-9"
     width="20.266867"
     height="20.266867"
     x="12.493983"
     y="-10.133433"
     transform="rotate(45.000001)"
     rx="2"
     ry="2" />
  <rect
     style="font-variation-settings:normal;vector-effect:none;fill:url(#linearGradient3);fill-opacity:1;stroke:#a41a00;stroke-width:0.999998;stroke-linecap:butt;stroke-linejoin:miter;stroke-miterlimit:4;stroke-dasharray:none;stroke-dashoffset:0;stroke-opacity:0.5;-inkscape-stroke:none;marker:none;paint-order:normal;stop-color:#000000"
     id="rect1-1-9-4"
     width="20.266867"
     height="20.266867"
     x="12.493983"
     y="-10.133433"
     transform="rotate(45.000001)"
     rx="2"
     ry="2" />
  <rect
     style="font-variation-settings:normal;opacity:0.3;vector-effect:none;fill:none;fill-opacity:1;stroke:url(#linearGradient2);stroke-width:0.999997;stroke-linecap:round;stroke-linejoin:miter;stroke-miterlimit:4;stroke-dasharray:none;stroke-dashoffset:0;stroke-opacity:1;-inkscape-stroke:none;marker:none;paint-order:normal;stop-color:#000000"
     id="rect1-1"
     width="18.268141"
     height="18.268141"
     x="13.493346"
     y="-9.1340704"
     transform="rotate(45.000001)"
     rx="1"
     ry="1" />
  <path
     id="path2-3-3"
     style="font-variation-settings:normal;opacity:0.05;vector-effect:none;fill:#a41a00;fill-opacity:0.96386;stroke:none;stroke-width:1;stroke-linecap:round;stroke-linejoin:miter;stroke-miterlimit:4;stroke-dasharray:none;stroke-dashoffset:0;stroke-opacity:1;-inkscape-stroke:none;marker:none;paint-order:normal;stop-color:#000000;stop-opacity:1"
     d="M 12.144531 5.5234375 L 10.023438 7.6445312 L 12.595703 10.216797 C 12.270021 11.494637 12.847995 12.938721 14 13.585938 C 13.9974 15.861823 14.005194 18.144154 13.996094 20.416016 C 12.602701 21.187706 12.059629 23.163257 12.933594 24.517578 C 13.715148 25.963531 15.776257 26.437067 17.130859 25.507812 C 18.493487 24.663242 18.921271 22.667402 17.986328 21.351562 C 17.816684 20.854068 17.063812 20.680072 17 20.214844 L 17 14.621094 L 18.595703 16.216797 C 18.216364 17.656234 19.020344 19.278947 20.427734 19.792969 C 21.905779 20.399081 23.750135 19.579215 24.292969 18.072266 C 24.899385 16.593493 24.078932 14.746865 22.570312 14.205078 C 21.98339 13.979718 21.331362 13.962408 20.716797 14.095703 L 18.404297 11.783203 C 18.782301 10.342864 17.980462 8.7181962 16.570312 8.2050781 C 15.983389 7.9797175 15.331362 7.9624075 14.716797 8.0957031 L 12.144531 5.5234375 z " />
  <path
     id="path2-3"
     style="font-variation-settings:normal;vector-effect:none;fill:#a41a00;fill-opacity:0.96386;stroke:none;stroke-width:1;stroke-linecap:round;stroke-linejoin:miter;stroke-miterlimit:4;stroke-dasharray:none;stroke-dashoffset:0;stroke-opacity:1;-inkscape-stroke:none;marker:none;paint-order:normal;opacity:0.15;stop-color:#000000;stop-opacity:1"
     d="M 11.4375 6.2304688 L 10.730469 6.9375 L 13.777344 9.984375 A 2 2 0 0 0 13.5 11 A 2 2 0 0 0 15 12.935547 L 15 21.064453 A 2 2 0 0 0 13.5 23 A 2 2 0 0 0 15.5 25 A 2 2 0 0 0 17.5 23 A 2 2 0 0 0 16 21.064453 L 16 12.935547 A 2 2 0 0 0 16.515625 12.722656 L 19.777344 15.984375 A 2 2 0 0 0 19.5 17 A 2 2 0 0 0 21.5 19 A 2 2 0 0 0 23.5 17 A 2 2 0 0 0 21.5 15 A 2 2 0 0 0 20.484375 15.277344 L 17.222656 12.015625 A 2 2 0 0 0 17.5 11 A 2 2 0 0 0 15.5 9 A 2 2 0 0 0 14.484375 9.2773438 L 11.4375 6.2304688 z " />
  <path
     id="path2"
     style="font-variation-settings:normal;opacity:1;vector-effect:none;fill:#fafafa;fill-opacity:1;stroke:none;stroke-width:0.999999;stroke-linecap:butt;stroke-linejoin:miter;stroke-miterlimit:4;stroke-dasharray:none;stroke-dashoffset:0;stroke-opacity:0.5;-inkscape-stroke:none;marker:none;paint-order:normal"
     d="M 11.9375 5.7304688 L 11.230469 6.4375 L 13.777344 8.984375 A 2 2 0 0 0 13.5 10 A 2 2 0 0 0 15 11.935547 L 15 20.064453 A 2 2 0 0 0 13.5 22 A 2 2 0 0 0 15.5 24 A 2 2 0 0 0 17.5 22 A 2 2 0 0 0 16 20.064453 L 16 11.935547 A 2 2 0 0 0 16.515625 11.722656 L 19.777344 14.984375 A 2 2 0 0 0 19.5 16 A 2 2 0 0 0 21.5 18 A 2 2 0 0 0 23.5 16 A 2 2 0 0 0 21.5 14 A 2 2 0 0 0 20.484375 14.277344 L 17.222656 11.015625 A 2 2 0 0 0 17.5 10 A 2 2 0 0 0 15.5 8 A 2 2 0 0 0 14.484375 8.2773438 L 11.9375 5.7304688 z " />
</svg>
