<?xml version="1.0" encoding="UTF-8" standalone="no"?>
<svg
   version="1.1"
   width="48"
   height="48"
   id="svg6649"
   sodipodi:docname="map-marker.svg"
   inkscape:version="1.4.2 (ebf0e940d0, 2025-05-08)"
   xmlns:inkscape="http://www.inkscape.org/namespaces/inkscape"
   xmlns:sodipodi="http://sodipodi.sourceforge.net/DTD/sodipodi-0.dtd"
   xmlns:xlink="http://www.w3.org/1999/xlink"
   xmlns="http://www.w3.org/2000/svg"
   xmlns:svg="http://www.w3.org/2000/svg"
   xmlns:rdf="http://www.w3.org/1999/02/22-rdf-syntax-ns#"
   xmlns:cc="http://creativecommons.org/ns#"
   xmlns:dc="http://purl.org/dc/elements/1.1/">
  <sodipodi:namedview
     id="namedview1"
     pagecolor="#ffffff"
     bordercolor="#000000"
     borderopacity="0.25"
     inkscape:showpageshadow="2"
     inkscape:pageopacity="0.0"
     inkscape:pagecheckerboard="0"
     inkscape:deskcolor="#d1d1d1"
     inkscape:zoom="12.484854"
     inkscape:cx="15.979362"
     inkscape:cy="16.01941"
     inkscape:window-width="2560"
     inkscape:window-height="1373"
     inkscape:window-x="0"
     inkscape:window-y="0"
     inkscape:window-maximized="1"
     inkscape:current-layer="svg6649" />
  <defs
     id="defs6651">
    <linearGradient
       id="linearGradient72">
      <stop
         id="stop69"
         style="stop-color:#ffffff;stop-opacity:1"
         offset="0" />
      <stop
         id="stop70"
         style="stop-color:#ffffff;stop-opacity:0.23529412"
         offset="0.4065806" />
      <stop
         id="stop71"
         style="stop-color:#ffffff;stop-opacity:0.15686275"
         offset="0.72683871" />
      <stop
         id="stop72"
         style="stop-color:#ffffff;stop-opacity:0.39215687"
         offset="1" />
    </linearGradient>
    <radialGradient
       cx="9.6923532"
       cy="41.271797"
       fx="9.6923532"
       fy="41.271797"
       r="29.069305"
       gradientTransform="matrix(1.2896764,0,0,0.77538829,11.5,2.867224)"
       id="radialGradient-9-0-5-6"
       gradientUnits="userSpaceOnUse">
      <stop
         stop-color="#000000"
         offset="0%"
         id="stop20-9-0-0" />
      <stop
         stop-color="#000000"
         stop-opacity="0"
         offset="100%"
         id="stop21-3-3-4" />
    </radialGradient>
    <filter
       x="-0.20869565"
       y="-0.48"
       width="1.4173913"
       height="1.96"
       filterUnits="objectBoundingBox"
       id="filter-10-6-6-8">
      <feGaussianBlur
         stdDeviation="2"
         in="SourceGraphic"
         id="feGaussianBlur21-0-1-8" />
    </filter>
    <linearGradient
       xlink:href="#linearGradient67-6"
       id="linearGradient68-3"
       x1="31.99835"
       y1="12.05765"
       x2="31.99835"
       y2="62.093575"
       gradientUnits="userSpaceOnUse" />
    <linearGradient
       id="linearGradient67-6">
      <stop
         style="stop-color:#ed5353;stop-opacity:1"
         offset="0"
         id="stop67-7" />
      <stop
         style="stop-color:#cf3137;stop-opacity:1;"
         offset="0.53065509"
         id="stop7" />
      <stop
         style="stop-color:#7a0000;stop-opacity:1"
         offset="1"
         id="stop68-5" />
    </linearGradient>
    <linearGradient
       xlink:href="#linearGradient7"
       id="linearGradient9"
       x1="42.682747"
       y1="38.574261"
       x2="42.682747"
       y2="62.183842"
       gradientUnits="userSpaceOnUse" />
    <linearGradient
       id="linearGradient7">
      <stop
         style="stop-color:#a10705;stop-opacity:0.5;"
         offset="0"
         id="stop8" />
      <stop
         style="stop-color:#7a0000;stop-opacity:1"
         offset="1"
         id="stop9" />
    </linearGradient>
    <linearGradient
       xlink:href="#linearGradient72"
       id="linearGradient69"
       gradientUnits="userSpaceOnUse"
       gradientTransform="matrix(1.4324324,0,0,1.4362832,-2.3783747,-2.4707827)"
       x1="23.99999"
       y1="11.447933"
       x2="23.99999"
       y2="34.460789" />
    <linearGradient
       xlink:href="#linearGradient12"
       id="linearGradient13"
       x1="25.999889"
       y1="26"
       x2="37.999889"
       y2="26"
       gradientUnits="userSpaceOnUse"
       gradientTransform="translate(-47.999889,-2.000111)" />
    <linearGradient
       id="linearGradient12">
      <stop
         style="stop-color:#a10705;stop-opacity:1;"
         offset="0"
         id="stop12" />
      <stop
         style="stop-color:#7a0000;stop-opacity:1"
         offset="1"
         id="stop13" />
    </linearGradient>
  </defs>
  <metadata
     id="metadata6654">
    <rdf:RDF>
      <cc:Work
         rdf:about="">
        <dc:format>image/svg+xml</dc:format>
        <dc:type
           rdf:resource="http://purl.org/dc/dcmitype/StillImage" />
      </cc:Work>
    </rdf:RDF>
  </metadata>
  <ellipse
     id="Shadow-6-7"
     fill="url(#radialGradient-9)"
     fill-rule="nonzero"
     opacity="0.580799"
     filter="url(#filter-10)"
     cx="24"
     cy="34.867226"
     rx="11.5"
     ry="5"
     style="opacity:0.3;fill:url(#radialGradient-9-0-5-6);filter:url(#filter-10-6-6-8)" />
  <g
     id="g73"
     transform="translate(-8,-12)">
    <path
       id="rect52-9-8-3-0"
       style="font-variation-settings:normal;opacity:0.125723;vector-effect:none;fill:#ff8c82;fill-opacity:1;stroke:none;stroke-width:0.999993;stroke-linecap:round;stroke-linejoin:round;stroke-miterlimit:4;stroke-dasharray:none;stroke-dashoffset:0;stroke-opacity:0.5;-inkscape-stroke:none"
       d="m 31.347656,25.347656 c -4.928582,0.163218 -10.009089,2.778026 -12.194576,7.342598 -1.914125,3.872352 -0.911685,8.828001 2.166982,11.807272 1.940829,1.836584 4.089931,3.439724 6.10476,5.194325 1.178139,1.030347 2.498622,2.088153 4.143799,2.119431 1.73016,0.16959 3.411317,-0.593225 4.618882,-1.803751 2.210862,-1.883813 4.519051,-3.663068 6.640563,-5.645975 2.845032,-2.918431 3.874106,-7.555393 2.173434,-11.315827 -2.246456,-5.198734 -8.194348,-7.963867 -13.653844,-7.698073 z" />
    <path
       id="rect52-9-8-3"
       style="font-variation-settings:normal;opacity:0.334042;vector-effect:none;fill:#ff8c82;fill-opacity:1;stroke:none;stroke-width:0.999993;stroke-linecap:round;stroke-linejoin:round;stroke-miterlimit:4;stroke-dasharray:none;stroke-dashoffset:0;stroke-opacity:0.5;-inkscape-stroke:none"
       d="m 31.365595,26.348004 c -4.583005,0.148077 -8.917596,2.546493 -10.896692,5.999462 -2.122684,3.5344 -1.603793,8.035696 1.289074,11.165492 1.117806,1.214798 2.541394,2.199979 3.797459,3.310915 1.332477,1.082635 2.595322,2.229868 3.971722,3.271788 1.454381,1.045777 3.804201,0.95347 5.176424,-0.154526 2.310103,-1.926454 4.634679,-3.843288 6.920568,-5.789194 3.010649,-2.806065 4.01707,-6.97966 2.531065,-10.53851 C 42.701628,29.918409 38.656553,27.054635 34.052041,26.471959 33.164978,26.350494 32.263176,26.3159 31.365595,26.348004 Z" />
    <path
       id="rect52-9-8"
       style="font-variation-settings:normal;opacity:0.3;vector-effect:none;fill:#ed5353;fill-opacity:1;stroke:none;stroke-width:1.48512;stroke-linecap:round;stroke-linejoin:round;stroke-miterlimit:4;stroke-dasharray:none;stroke-dashoffset:0;stroke-opacity:0.5;-inkscape-stroke:none"
       d="M 31.999076,12 C 23.163215,12.000448 16.000447,19.163217 16,27.999078 c -8.9e-5,4.490502 1.886869,8.774353 5.200068,11.805413 l 8.016506,8.017876 a 3.9350527,3.9350527 0.00244835 0 0 5.565242,2.38e-4 L 42.79993,39.804491 C 46.11313,36.773432 48.000088,32.489581 48,27.999078 47.999553,19.162495 40.835659,11.999427 31.999076,12 Z"
       transform="matrix(0.73665914,0,0,0.61546252,8.4270079,19.824342)" />
    <path
       id="rect52-9"
       style="font-variation-settings:normal;vector-effect:none;fill:url(#linearGradient68-3);fill-opacity:1;stroke:url(#linearGradient9);stroke-width:1.02961;stroke-linecap:round;stroke-linejoin:round;stroke-miterlimit:4;stroke-dasharray:none;stroke-dashoffset:0;-inkscape-stroke:none"
       d="M 31.999076,12 C 23.163215,12.000448 16.000447,19.163217 16,27.999078 c -8.9e-5,4.490502 1.886869,8.774353 5.200068,11.805413 l 8.016506,8.017876 c 1.536695,1.536957 4.028415,1.537064 5.565242,2.38e-4 L 42.79993,39.804491 C 46.11313,36.773432 48.000088,32.489581 48,27.999078 47.999553,19.162495 40.835659,11.999427 31.999076,12 Z"
       transform="matrix(0.96882097,0,0,0.97365597,0.99761838,0.81737137)" />
    <path
       id="rect52-9-5"
       style="font-variation-settings:normal;opacity:0.3;vector-effect:none;fill:none;fill-opacity:1;stroke:url(#linearGradient69);stroke-width:1;stroke-linecap:round;stroke-linejoin:round;stroke-miterlimit:4;stroke-dasharray:none;stroke-dashoffset:0;stroke-opacity:1;-inkscape-stroke:none;stop-color:#000000;stop-opacity:1"
       d="m 31.275166,13.522441 c -5.349454,0.207347 -10.385129,3.687407 -12.519807,8.615685 -2.289134,5.007301 -1.38268,11.27742 2.233614,15.42097 2.327754,2.458166 4.774588,4.806068 7.14421,7.22594 1.132572,0.9833 2.021132,2.557902 3.65137,2.691755 1.512788,0.172705 2.520011,-1.122116 3.47328,-2.081551 2.561085,-2.605714 5.187438,-5.150729 7.713182,-7.788696 3.571874,-4.062697 4.537563,-10.188208 2.406616,-15.166281 -2.05647,-5.046189 -7.130065,-8.67379 -12.559289,-8.909934 -0.513886,-0.03226 -1.02877,-0.0273 -1.543176,-0.0079 z" />
  </g>
  <circle
     style="font-variation-settings:normal;vector-effect:none;fill:url(#linearGradient13);fill-opacity:1;stroke:none;stroke-width:1;stroke-linecap:round;stroke-linejoin:round;stroke-miterlimit:4;stroke-dasharray:none;stroke-dashoffset:0;stroke-opacity:1;-inkscape-stroke:none;marker:none"
     id="path73"
     cx="-16"
     cy="23.999889"
     r="6"
     transform="rotate(-90)" />
  <circle
     style="font-variation-settings:normal;opacity:0.1;vector-effect:none;fill:#fafafa;fill-opacity:1;stroke:none;stroke-width:1;stroke-linecap:round;stroke-linejoin:round;stroke-miterlimit:4;stroke-dasharray:none;stroke-dashoffset:0;stroke-opacity:1;-inkscape-stroke:none;marker:none"
     id="path73-0"
     cx="23.999889"
     cy="17"
     r="6" />
</svg>
