<?xml version="1.0" encoding="UTF-8" standalone="no"?>
<svg
   height="16"
   width="16"
   version="1.1"
   id="svg6"
   xmlns="http://www.w3.org/2000/svg"
   xmlns:svg="http://www.w3.org/2000/svg">
  <defs
     id="defs10" />
  <path
     id="rect322"
     style="opacity:1;fill:#555761;stroke:none;stroke-width:1;stroke-linecap:round;-inkscape-stroke:none;stop-color:#000000"
     d="M 6.5918645,2 C 6.960837,2 7.145669,2.4460609 6.8848332,2.7070312 L 5.5000676,4.0859375 8.1426457,6.7285156 c 0.1849146,0.1994343 0.1849148,0.5075977 0,0.7070313 L 7.3711614,8.2089844 C 7.1781216,8.339799 6.89051,8.3101606 6.7285832,8.1425781 l -2.6464846,-2.6464843 -1.375,1.3710937 C 2.4461296,7.1280224 2.0000676,6.9431911 2.0000676,6.5742188 V 2.5292969 C 1.9953676,2.2344616 2.2364816,1.995256 2.5313176,2 Z m 4.4082035,1 c 1.107993,0 2,0.8920066 2,2 v 6 c 0,1.107994 -0.892007,2 -2,2 H 5.0000676 c -1.107994,0 -2,-0.892006 -2,-2 V 7.8417969 c 0.381747,-0.1889532 0.71756,-0.5201678 1,-0.8398438 V 11 c 0,0.553995 0.446006,1 1,1 h 6.0000004 c 0.553996,0 1,-0.446005 1,-1 V 5 c 0,-0.5539964 -0.446004,-1 -1,-1 H 6.9805364 C 7.3005748,3.7178047 7.6336442,3.3819673 7.8242864,3 Z" />
</svg>
