<?xml version="1.0" encoding="UTF-8" standalone="no"?>
<svg
   height="16"
   width="16"
   version="1.1"
   id="svg1"
   xmlns="http://www.w3.org/2000/svg"
   xmlns:svg="http://www.w3.org/2000/svg">
  <defs
     id="defs1" />
  <g
     transform="matrix(-1,0,0,1,829,-69)"
     id="g1">
    <path
       color="#000000"
       d="m 814,72.772 c -0.554,0 -1,0.446 -1,1 v 5.494 c 0,0.554 0.446,1 1,1 0.554,0 1,-0.446 1,-1 l 3.25,-0.282 A 4.5,4.5 0 0 0 822,81 v -4 h 4 l 2,-0.5 -2,-0.5 h -4 v -4 a 4.5,4.5 0 0 0 -3.683,1.924 L 815,73.772 c 0,-0.554 -0.446,-1 -1,-1 z"
       fill="#666666"
       overflow="visible"
       style="isolation:auto;mix-blend-mode:normal;marker:none"
       id="path1" />
  </g>
</svg>
