<?xml version="1.0" encoding="UTF-8" standalone="no"?>
<svg
   version="1.1"
   width="16"
   height="16"
   id="svg7539"
   viewBox="0 0 16 16"
   xmlns="http://www.w3.org/2000/svg"
   xmlns:svg="http://www.w3.org/2000/svg"
   xmlns:rdf="http://www.w3.org/1999/02/22-rdf-syntax-ns#"
   xmlns:cc="http://creativecommons.org/ns#"
   xmlns:dc="http://purl.org/dc/elements/1.1/">
  <defs
     id="defs7541" />
  <metadata
     id="metadata7544">
    <rdf:RDF>
      <cc:Work
         rdf:about="">
        <dc:format>image/svg+xml</dc:format>
        <dc:type
           rdf:resource="http://purl.org/dc/dcmitype/StillImage" />
      </cc:Work>
    </rdf:RDF>
  </metadata>
  <path
     style="fill:#555761;stroke-width:1;marker:none"
     d="m 12.73786,3.0004138 c -0.234026,0.006 -0.468941,0.074515 -0.674936,0.2127424 -4e-6,7.167e-4 -4e-6,0.00143 0,0.00215 -0.05208,0.035129 -0.09886,0.075584 -0.14478,0.1181903 -0.0195,0.011002 -0.03683,0.025575 -0.05109,0.042982 L 6.625125,9.8318088 4.1382981,7.3925468 C 3.6434797,6.8630475 2.8009139,6.9168069 2.3649981,7.3527226 2.0481821,7.6695387 1.782926,8.3875578 2.2867583,9.0458451 l 3.6016814,4.5573069 c 0.00454,0.0068 0.00952,0.01324 0.014904,0.01934 0.4205859,0.43396 1.1099074,0.501129 1.6160117,0.163318 0.1266092,-0.08508 0.2350342,-0.190716 0.3193698,-0.313743 L 13.802426,4.7926074 c 7.33e-4,4.5e-6 0.0015,4.5e-6 0.0022,0 0.268266,-0.3921024 0.264135,-0.9200399 -0.03619,-1.3129859 -0.199465,-0.2598408 -0.491802,-0.4170701 -0.798425,-0.4641653 -0.07666,-0.011774 -0.154066,-0.01704 -0.232075,-0.015042 z"
     id="path1" />
</svg>
