<?xml version="1.0" encoding="UTF-8"?>
<svg width="16" height="16" version="1.1" xmlns="http://www.w3.org/2000/svg" xmlns:cc="http://creativecommons.org/ns#" xmlns:dc="http://purl.org/dc/elements/1.1/" xmlns:rdf="http://www.w3.org/1999/02/22-rdf-syntax-ns#">
 <metadata>
  <rdf:RDF>
   <cc:Work rdf:about="">
    <dc:format>image/svg+xml</dc:format>
    <dc:type rdf:resource="http://purl.org/dc/dcmitype/StillImage"/>
   </cc:Work>
  </rdf:RDF>
 </metadata>
 <path d="m8.9668 1c-0.6001 3.399e-4 -1.0648 0.5254-0.99219 1.1211 0.015508 0.12647 0.023756 0.25346 0.025391 0.38086-0.0012021 1.5102-0.95928 2.8336-2.3759 3.3123-0.14846 0.06088-0.41378 0.1879-0.53512 0.1879l-2.0889-0.0021492c-0.554 0-1 0.446-1 1v6c0 0.554 0.446 1 1 1h2l6.0156 0.97266c0.9699 0.16776 1.9076-0.43198 2.1621-1.3828l1.6602-6.1953c0.32346-1.2083-0.58707-2.3946-1.8379-2.3945h-1.4531c0.04644-0.31432 0.07422-0.64494 0.07422-1 0-0.63742-0.07136-1.2133-0.22656-1.7129-0.077606-0.24982-0.16988-0.48128-0.34766-0.72266-0.17778-0.24137-0.52852-0.56445-1.0469-0.56445zm0.27344 1.1035h0.75977c0.041 0 0.09461 0.028897 0.1582 0.11523 0.06359 0.086338 0.12772 0.22291 0.18164 0.39648 0.10783 0.34714 0.17773 0.83944 0.17773 1.3848 0 0.52895-0.06754 1.0026-0.16992 1.3477-0.02015 0.052439-0.01797 0.112-0.02539 0.1582 0 0.27614 0.22386 0.49414 0.5 0.49414h2.1777c0.59352 2.615e-4 1.0252 0.56355 0.87109 1.1367l-1.6602 6.1953c-0.12139 0.45029-0.56588 0.73391-1.0254 0.6543l-5.1855-0.89416v-6.2592c1.8393-0.63912 3.103-2.3648 3.1035-4.333v-0.00195c-0.00134-0.12648-0.013649-0.25106-0.025391-0.37696zm-6.2402 4.8965h2v6h-2z" fill="#555761" style="font-variation-settings:normal"/>
</svg>
