<?xml version="1.0" encoding="UTF-8"?>
<svg width="16" height="16" version="1.1" xmlns="http://www.w3.org/2000/svg" xmlns:cc="http://creativecommons.org/ns#" xmlns:dc="http://purl.org/dc/elements/1.1/" xmlns:rdf="http://www.w3.org/1999/02/22-rdf-syntax-ns#">
 <metadata>
  <rdf:RDF>
   <cc:Work rdf:about="">
    <dc:format>image/svg+xml</dc:format>
    <dc:type rdf:resource="http://purl.org/dc/dcmitype/StillImage"/>
   </cc:Work>
  </rdf:RDF>
 </metadata>
 <path d="m5.2871 1.0078c-0.81042 0.046237-1.6912 0.29015-2.709 0.76367-0.35247 0.16404-0.57794 0.51748-0.57812 0.90625v6.6484 6.1738c0 0.277 0.223 0.5 0.5 0.5s0.5-0.223 0.5-0.5v-5.1797c0.1397 5.4e-5 0.28273-0.02317 0.42188-0.08789 2.2689-1.055 2.9062-0.58124 4.1562 0 1.25 0.58124 3.1126 1.2699 5.8438 0 0.35247-0.16404 0.57794-0.51748 0.57812-0.90625v-6.6484c-4.1e-4 -0.7309-0.75916-1.2145-1.4219-0.90625-1.843 0.85689-2.5835 0.65882-3.4961 0.29102-0.91256-0.36781-2.0574-1.1548-3.7949-1.0547zm0.056641 0.99805c2.825-0.16275 3.5932 2.5609 7.6562 0.67188v6.6504c-5 2.3249-5-2.3249-10 0v-6.6504c0.937-0.43593 1.6918-0.63468 2.3438-0.67188z" color="#000000" fill="#555761" stroke-width=".70711"/>
</svg>
