<?xml version="1.0" encoding="UTF-8"?>
<svg width="16" height="16" version="1.1" xmlns="http://www.w3.org/2000/svg" xmlns:cc="http://creativecommons.org/ns#" xmlns:dc="http://purl.org/dc/elements/1.1/" xmlns:rdf="http://www.w3.org/1999/02/22-rdf-syntax-ns#">
 <metadata>
  <rdf:RDF>
   <cc:Work rdf:about="">
    <dc:format>image/svg+xml</dc:format>
    <dc:type rdf:resource="http://purl.org/dc/dcmitype/StillImage"/>
   </cc:Work>
  </rdf:RDF>
 </metadata>
 <path d="m8.5098 0a5.5 5.0417 0 0 0-3.5449 1.1797 5.5 5.0417 0 0 0-1.2285 6.3828c0.76696 1.0496 2.2637 2.0802 2.2637 3.4375h0.0039062c1e-7 0-0.0015642 1.0823-0.0019531 2v1c-2.148e-4 0.37958 2.062e-4 0.78734 0 0.94727-0.038755 0.53272 0.41349 1.0366 0.94922 1.0488 0.99958 3e-3 1.9984 0.001092 2.998 0.001953 0.53276 0.038752 1.0366-0.41157 1.0488-0.94727 3e-3 -0.66637 0.001093-3.3844 0.001953-4.0508 0-1.3573 1.4967-2.3879 2.2637-3.4375a5.5 5.0417 0 0 0-1.2285-6.3828 5.5 5.0417 0 0 0-3.5254-1.1797zm-0.0097656 0.91602a4.5 4.125 0 0 1 4.5 4.125 4.5 4.125 0 0 1-0.66211 2.1367c-0.51091 0.77167-2.3891 2.2575-2.3379 3.8223h-3c0.051804-1.5819-1.8777-3.0894-2.3633-3.8535a4.5 4.125 0 0 1-0.63672-2.1055 4.5 4.125 0 0 1 4.5-4.125zm-1.5059 4.5859c-0.12796 1e-7 -0.25588 0.048854-0.35352 0.14648-0.19526 0.19526-0.19526 0.51177 0 0.70703 0.18279 0.18279 1.0839 0.80491 1.3594 0.72461v2.9199h1v-2.918c0.28763 0.061705 1.1672-0.54608 1.3477-0.72656 0.19526-0.19526 0.19526-0.51177 0-0.70703-0.19526-0.19526-0.51177-0.19526-0.70703 0-0.18128 0.18128-0.7946 1.068-0.72656 1.3516h-0.83984c0.068603-0.28317-0.54521-1.1702-0.72656-1.3516-0.097631-0.097631-0.22555-0.14648-0.35352-0.14648zm0.0058594 6.498h3v3h-3v-1h1.502v-1h-1.502v-1z" fill="#555761" style="font-variation-settings:normal"/>
</svg>
