<?xml version="1.0" encoding="UTF-8"?>
<svg width="16" height="16" version="1.1" xmlns="http://www.w3.org/2000/svg">
 <g transform="translate(-1108 -54)" fill="#555761">
  <path d="M1112.781 55c-2.618 0-4.781 2.129-4.781 4.75 0 1.36.575 2.608 1.504 3.479v.002l6.39 6.146 6.6-6.146A4.761 4.761 0 0 0 1124 59.75c0-2.621-2.163-4.75-4.781-4.75-1.29 0-2.36.622-3.219 1.459-.86-.837-1.93-1.459-3.219-1.459zm0 1c1.372 0 2.56.721 3.219 1.813a3.741 3.741 0 0 1 3.219-1.813c2.082 0 3.781 1.675 3.781 3.75 0 1.08-.456 2.065-1.188 2.75l-5.906 5.5-5.719-5.5a3.766 3.766 0 0 1-1.187-2.75c0-2.075 1.7-3.75 3.781-3.75z" fill="#555761" font-family="sans-serif" font-weight="400" overflow="visible" style="font-feature-settings:normal;font-variant-alternates:normal;font-variant-caps:normal;font-variant-ligatures:normal;font-variant-numeric:normal;font-variant-position:normal;isolation:auto;mix-blend-mode:normal;shape-padding:0;text-decoration-color:#000;text-decoration-line:none;text-decoration-style:solid;text-indent:0;text-orientation:mixed;text-transform:none" white-space="normal"/>
 </g>
</svg>
