<?xml version="1.0" encoding="UTF-8"?>
<svg width="16" height="16" version="1.1" xmlns="http://www.w3.org/2000/svg" xmlns:cc="http://creativecommons.org/ns#" xmlns:dc="http://purl.org/dc/elements/1.1/" xmlns:rdf="http://www.w3.org/1999/02/22-rdf-syntax-ns#">
 <metadata>
  <rdf:RDF>
   <cc:Work rdf:about="">
    <dc:format>image/svg+xml</dc:format>
    <dc:type rdf:resource="http://purl.org/dc/dcmitype/StillImage"/>
   </cc:Work>
  </rdf:RDF>
 </metadata>
 <path d="m8 0c-4.412 0-8 3.588-8 8s3.588 8 8 8 8-3.588 8-8-3.588-8-8-8zm0 1c0.023088 0 0.045325 0.0036843 0.068359 0.0039062 0.33918 0.0032679 0.67022 0.036276 0.99609 0.085938 3.3635 0.51259 5.9355 3.4012 5.9355 6.9102 0 0.30927-0.025757 0.6116-0.064453 0.91016-0.35334-0.053848-0.69549-0.13988-1.0293-0.24414l0.35938-0.92969-0.93164-0.36133-0.35938 0.92578c-0.80119-0.38354-1.515-0.915-2.1113-1.5586l0.76367-0.61523-0.62695-0.77734-0.76367 0.61523c-0.49349-0.71446-0.85293-1.5257-1.0527-2.4004l0.96289-0.14844-0.15234-0.98828-0.96875 0.15039c-0.01557-0.1908-0.025391-0.38319-0.025391-0.57812 0-0.30927 0.025757-0.6116 0.064453-0.91016-0.32587-0.049662-0.65692-0.08267-0.99609-0.085938-0.040892 0.32716-0.068359 0.65801-0.068359 0.99609 0 0.24615 0.011326 0.48999 0.033203 0.73047l-1.0039 0.15625 0.15234 0.98828 1.0117-0.15625c0.23133 1.0496 0.66538 2.0227 1.2656 2.873l-0.79492 0.63867 0.62695 0.77734 0.79492-0.64062c0.70785 0.77692 1.5644 1.4158 2.5273 1.8672l-0.36328 0.9375 0.93164 0.36133 0.36328-0.93555c0.38573 0.12476 0.7808 0.22762 1.1895 0.29297 0.087887-0.31461 0.1557-0.63779 0.19922-0.96875-0.043473 0.331-0.11132 0.65411-0.19922 0.96875-0.82387 2.9492-3.5188 5.1094-6.7344 5.1094-0.056701 0-0.11159-0.006478-0.16797-0.007812 0.069619-0.55902 0.065024-1.1333 0.013672-1.7129l1.0234-0.1582-0.1543-0.98828-1.0078 0.15625c-0.23312-1.0605-0.67449-2.026-1.2695-2.8691l0.79688-0.64062-0.62695-0.7793-0.80469 0.64648c-0.71219-0.77986-1.5672-1.4108-2.5234-1.8594l0.36914-0.95117-0.93359-0.36133-0.36133 0.93555c-0.35657-0.1157-0.72008-0.21438-1.0938-0.2793-0.087532 0.31724-0.15487 0.64281-0.19727 0.97656 0.31774 0.053302 0.62607 0.13722 0.92969 0.23242l-0.36133 0.93164 0.93359 0.36133 0.35742-0.92383c0.79604 0.38174 1.5075 0.91291 2.1074 1.5605l-0.75977 0.61133 0.62695 0.7793 0.76172-0.61328c0.48768 0.70761 0.83901 1.5169 1.041 2.3984l-0.94922 0.14844 0.1543 0.98828 0.95312-0.14844c0.039154 0.49517 0.040924 0.98616-0.019531 1.4629-3.3156-0.55313-5.8379-3.4214-5.8379-6.8965 0-0.30319 0.025287-0.59966 0.0625-0.89258 0.0424-0.33375 0.10973-0.65932 0.19727-0.97656 0.81675-2.9602 3.5169-5.1309 6.7402-5.1309zm-1.1543 13.896c0.31907 0.052896 0.64432 0.087356 0.97656 0.095704-0.33228-0.00832-0.65746-0.04283-0.97656-0.095704z" color="#bebebe" fill="#555761" style="font-variation-settings:normal"/>
</svg>
