<?xml version="1.0" encoding="UTF-8"?>
<svg width="16" height="16" fill="none" version="1.1" viewBox="0 0 16 16" xmlns="http://www.w3.org/2000/svg">
 <path d="m15.761 0.63266c0.205 0.18497 0.2213 0.50114 0.0363 0.70617-0.0995 0.11036-0.2602 0.27738-0.3573 0.37681-0.1883 0.19264-0.3538 0.33151-0.5063 0.45767-0.0101 0.00834-0.0201 0.0166-0.03 0.02481-0.0671 0.05543-0.1312 0.10841-0.1957 0.16407 2e-4 6.5e-4 3e-4 0.0013 5e-4 0.00195 0.0237 0.08335 0.0421 0.14801 0.0505 0.17485 0.7399 2.3785 0.1755 5.0241-0.9261 7.1284-0.1254 0.24057-0.3233 0.44726-0.6277 0.50376-0.2458 0.0457-0.4818-0.0299-0.6132-0.072l-0.0088-0.0028c-0.966-0.32903-2.1448 0.2633-2.4543 1.2325l-0.0058 0.0182-0.0072 0.0177c-0.19973 0.4922-0.0893 1.0552 0.1115 1.7275l0.1166 0.3903-0.35875 0.1931c-1.1114 0.5979-2.328 1.0528-3.6105 1.227-1.4605 0.2427-2.9285 0.0131-4.276-0.4176-0.35178-0.0965-0.50531-0.4124-0.56732-0.5614-0.06162-0.148-0.1066-0.3221-0.13683-0.4392-0.00482-0.0186-0.00927-0.0358-0.01334-0.0513-0.75835-2.4201-0.32064-5.0739 0.85633-7.2364 1.6082-3.0288 4.8751-5.0251 8.2755-5.1863 0.1503-0.00985 0.2994-0.013922 0.4468-0.013467 1.0222 0.003157 2.0114 0.23853 2.9345 0.51633l0.0487 0.01466 0.1236 0.06672c0.0691-0.05937 0.1345-0.11342 0.1965-0.16464 0.0111-0.00919 0.0221-0.01829 0.033-0.02731 0.1471-0.12169 0.2789-0.23295 0.4285-0.38605 0.0958-0.098075 0.2447-0.25314 0.3301-0.3478 0.185-0.20504 0.5012-0.2213 0.7062-0.036325zm-2.4368 1.7557c-0.7956-0.22638-1.5825-0.38886-2.3674-0.39128-0.1284-4e-4 -0.2559 0.0032-0.3824 0.0116l-0.0097 6.4e-4c-3.0629 0.14362-6.0081 1.9504-7.445 4.6586l-0.00256 0.00481c-1.0734 1.9709-1.4467 4.3496-0.77862 6.471l0.00325 0.0103 0.0028 0.0104c0.00884 0.033 0.01631 0.0618 0.02341 0.0892 0.01076 0.0414 0.02065 0.0795 0.03309 0.1237 0.01893 0.0673 0.03634 0.1206 0.0536 0.1621 0.00162 0.0039 0.00318 0.0075 0.00467 0.0109 1.2375 0.3889 2.5204 0.5719 3.7582 0.3647l0.00783-0.0013 0.00787-0.0011c1.0105-0.1363 1.9931-0.4721 2.9239-0.9344-0.14974-0.5884-0.24565-1.2887 0.02497-1.9717 0.48824-1.4921 2.2322-2.3618 3.7188-1.8584 0.0244 0.0078 0.0457 0.01428 0.0646 0.01966 0.9466-1.8248 1.4119-4.0041 0.9445-5.9468-2.089 1.98-4.3262 3.8-6.6761 5.459-0.22559 0.15926-0.53757 0.10549-0.69683-0.1201s-0.10549-0.53757 0.1201-0.69683c2.334-1.6478 4.553-3.4554 6.6214-5.4215l0.0455-0.05314z" clip-rule="evenodd" fill="#555761" fill-rule="evenodd"/>
</svg>
