<?xml version="1.0" encoding="UTF-8"?>
<svg width="16" height="16" version="1.1" xmlns="http://www.w3.org/2000/svg" xmlns:cc="http://creativecommons.org/ns#" xmlns:dc="http://purl.org/dc/elements/1.1/" xmlns:rdf="http://www.w3.org/1999/02/22-rdf-syntax-ns#">
 <metadata>
  <rdf:RDF>
   <cc:Work rdf:about="">
    <dc:format>image/svg+xml</dc:format>
    <dc:type rdf:resource="http://purl.org/dc/dcmitype/StillImage"/>
   </cc:Work>
  </rdf:RDF>
 </metadata>
 <path d="m3 1c-0.72758 0-1.3298 1.4995-1.4688 3.502a1 1 0 0 0-0.03125-0.0019531 1 1 0 0 0-1 1 1 1 0 0 0 0.25391 0.66211c-0.47207 0.25549-0.75391 0.53701-0.75391 0.83789v4 3.5c0 0.277 0.223 0.5 0.5 0.5h1.5684c0.277 0 0.5-0.223 0.5-0.5v-2.0371c1.4262 0.3309 3.3235 0.53711 5.4316 0.53711 2.1082 0 4.0055-0.20621 5.4316-0.53711v2.0371c0 0.277 0.223 0.5 0.5 0.5h1.5684c0.277 0 0.5-0.223 0.5-0.5v-3.5-4c0-0.30058-0.28078-0.5826-0.75195-0.83789a1 1 0 0 0 0.25195-0.66211 1 1 0 0 0-1-1 1 1 0 0 0-0.03125 0c-0.13916-2.0015-0.7414-3.5-1.4688-3.5h-10zm0.33594 1h9.3281c0.4631 0 0.83594 1.561 0.83594 3.5 0 0.018022-0.001889 0.032826-0.001953 0.050781-1.4326-0.33962-3.3588-0.55078-5.498-0.55078-2.1391 0-4.0655 0.20925-5.498 0.54883-5.93e-5 -0.017269-0.0019531-0.031498-0.0019531-0.048828 0-1.939 0.37284-3.5 0.83594-3.5zm4.6641 4c3.878 0 7 0.64326 7 1.4434v3.1133c0 0.8001-3.122 1.4434-7 1.4434s-7-0.64326-7-1.4434v-3.1133c0-0.8001 3.122-1.4434 7-1.4434zm-5 2a1 1 0 0 0-1 1 1 1 0 0 0 1 1 1 1 0 0 0 1-1 1 1 0 0 0-1-1zm10 0a1 1 0 0 0-1 1 1 1 0 0 0 1 1 1 1 0 0 0 1-1 1 1 0 0 0-1-1zm-7.5 2c-0.277 0-0.5 0.223-0.5 0.5s0.223 0.5 0.5 0.5h5c0.277 0 0.5-0.223 0.5-0.5s-0.223-0.5-0.5-0.5h-5z" fill="#555761" style="font-variation-settings:normal"/>
</svg>
