<?xml version="1.0" encoding="UTF-8"?>
<svg width="16" height="16" version="1.1" xml:space="preserve" xmlns="http://www.w3.org/2000/svg"><path d="m3 0c-1.108 0-2 0.892-2 2v12c0 1.108 0.892 2 2 2h10c1.108 0 2-0.892 2-2v-12c0-1.108-0.892-2-2-2h-10zm0.25 2h1.5c0.1385 0 0.25 0.1115 0.25 0.25v1.5c0 0.1385-0.1115 0.25-0.25 0.25h-1.5c-0.1385 0-0.25-0.1115-0.25-0.25v-1.5c0-0.1385 0.1115-0.25 0.25-0.25zm4 0h1.5c0.1385 0 0.25 0.1115 0.25 0.25v1.5c0 0.1385-0.1115 0.25-0.25 0.25h-1.5c-0.1385 0-0.25-0.1115-0.25-0.25v-1.5c0-0.1385 0.1115-0.25 0.25-0.25zm4 0h1.5c0.1385 0 0.25 0.1115 0.25 0.25v1.5c0 0.1385-0.1115 0.25-0.25 0.25h-1.5c-0.1385 0-0.25-0.1115-0.25-0.25v-1.5c0-0.1385 0.1115-0.25 0.25-0.25zm-8 3h1.5c0.1385 0 0.25 0.1115 0.25 0.25v1.5c0 0.1385-0.1115 0.25-0.25 0.25h-1.5c-0.1385 0-0.25-0.1115-0.25-0.25v-1.5c0-0.1385 0.1115-0.25 0.25-0.25zm4 0h1.5c0.1385 0 0.25 0.1115 0.25 0.25v1.5c0 0.1385-0.1115 0.25-0.25 0.25h-1.5c-0.1385 0-0.25-0.1115-0.25-0.25v-1.5c0-0.1385 0.1115-0.25 0.25-0.25zm4 0h1.5c0.1385 0 0.25 0.1115 0.25 0.25v1.5c0 0.1385-0.1115 0.25-0.25 0.25h-1.5c-0.1385 0-0.25-0.1115-0.25-0.25v-1.5c0-0.1385 0.1115-0.25 0.25-0.25zm-8 3h1.5c0.1385 0 0.25 0.1115 0.25 0.25v1.5c0 0.1385-0.1115 0.25-0.25 0.25h-1.5c-0.1385 0-0.25-0.1115-0.25-0.25v-1.5c0-0.1385 0.1115-0.25 0.25-0.25zm4 0h1.5c0.1385 0 0.25 0.1115 0.25 0.25v1.5c0 0.1385-0.1115 0.25-0.25 0.25h-1.5c-0.1385 0-0.25-0.1115-0.25-0.25v-1.5c0-0.1385 0.1115-0.25 0.25-0.25zm4 0h1.5c0.1385 0 0.25 0.1115 0.25 0.25v1.5c0 0.1385-0.1115 0.25-0.25 0.25h-1.5c-0.1385 0-0.25-0.1115-0.25-0.25v-1.5c0-0.1385 0.1115-0.25 0.25-0.25zm-8 3h1.5c0.1385 0 0.25 0.1115 0.25 0.25v1.5c0 0.1385-0.1115 0.25-0.25 0.25h-1.5c-0.1385 0-0.25-0.1115-0.25-0.25v-1.5c0-0.1385 0.1115-0.25 0.25-0.25zm8 0h1.5c0.1385 0 0.25 0.1115 0.25 0.25v1.5c0 0.1385-0.1115 0.25-0.25 0.25h-1.5c-0.1385 0-0.25-0.1115-0.25-0.25v-1.5c0-0.1385 0.1115-0.25 0.25-0.25zm-4.25 1h2v3h-2v-3z" fill="#555761" style="-inkscape-stroke:none"/></svg>
