<?xml version="1.0" encoding="UTF-8"?>
<svg width="16" height="16" version="1.1" xml:space="preserve" xmlns="http://www.w3.org/2000/svg"><path d="m4.9707 0.021484c-0.1858 0.012594-0.34406 0.13967-0.39648 0.31836l-2.2383 7.6602h1.668c5.873e-4 -0.61338-7.49e-5 -1.2267-0.0039062-1.8398 0-1.158 0.48363-2.1292 1.5586-2.1543 0.31171-0.002487 0.62376-0.0048016 0.93555-0.0058594l-1.0684-3.6602c-0.058579-0.19948-0.2476-0.33172-0.45508-0.31836zm4.6895 1.9785c-0.36608 0-0.66016 0.29407-0.66016 0.66016v1.3398c0.4166 4.816e-4 0.83344 3.256e-4 1.25 0-0.1385 0-0.25-0.1115-0.25-0.25v-0.5c0-0.1385 0.1115-0.25 0.25-0.25h0.5c0.1385 0 0.25 0.1115 0.25 0.25v0.5c0 0.1095-0.07034 0.20234-0.16797 0.23633 0.82825-0.10538 1.7524 0.26676 2.0586 1.0566 0.084243 0.19045 0.10938 0.42598 0.10938 0.70703l-0.003906 1.2344c0.3518-0.00572 0.68918 0.13655 1.0039 0.32227v-4.6465c-6e-6 -0.36608-0.29407-0.66016-0.66016-0.66016h-3.6797zm2.5898 1h0.5c0.1385 0 0.25 0.1115 0.25 0.25v0.5c0 0.1385-0.1115 0.25-0.25 0.25h-0.5c-0.1385 0-0.25-0.1115-0.25-0.25v-0.5c0-0.1385 0.1115-0.25 0.25-0.25zm-6.5898 2c-0.36608 0-0.66016 0.29407-0.66016 0.66016v2.3398h1.5c0.831 0 1.5 0.669 1.5 1.5v0.75c0-0.1385 0.1115-0.25 0.25-0.25h0.5c0.1385 0 0.25 0.1115 0.25 0.25v0.5c0 0.1385-0.1115 0.25-0.25 0.25h-0.5c-0.1385 0-0.25-0.1115-0.25-0.25v1.5c0-0.1385 0.1115-0.25 0.25-0.25h0.5c0.1385 0 0.25 0.1115 0.25 0.25v0.5c0 0.1385-0.1115 0.25-0.25 0.25h-0.5c-0.1385 0-0.25-0.1115-0.25-0.25v1.5c0-0.1385 0.1115-0.25 0.25-0.25h0.5c0.1385 0 0.25 0.1115 0.25 0.25v0.5c0 0.1385-0.1115 0.25-0.25 0.25h-0.5c-0.1385 0-0.25-0.1115-0.25-0.25v0.75c0 0.17548-0.029094 0.34374-0.083984 0.5h3.4238c0.36608 0 0.66016-0.29407 0.66016-0.66016v-9.6797c0-0.36608-0.29407-0.66016-0.66016-0.66016h-5.6797zm0.58984 1h0.5c0.1385 0 0.25 0.1115 0.25 0.25v0.5c0 0.1385-0.1115 0.25-0.25 0.25h-0.5c-0.1385 0-0.25-0.1115-0.25-0.25v-0.5c0-0.1385 0.1115-0.25 0.25-0.25zm2 0h0.5c0.1385 0 0.25 0.1115 0.25 0.25v0.5c0 0.1385-0.1115 0.25-0.25 0.25h-0.5c-0.1385 0-0.25-0.1115-0.25-0.25v-0.5c0-0.1385 0.1115-0.25 0.25-0.25zm2 0h0.5c0.1385 0 0.25 0.1115 0.25 0.25v0.5c0 0.1385-0.1115 0.25-0.25 0.25h-0.5c-0.1385 0-0.25-0.1115-0.25-0.25v-0.5c0-0.1385 0.1115-0.25 0.25-0.25zm2.7539 1.9922c0.003093 0.75248-0.001867 1.5051-0.003906 2.2578v0.5c-0.0016 0.48709-7.06e-4 0.97387-0.001953 1.4609 0.0019 0.012419 0.001953 0.026102 0.001953 0.039062v0.5c0 0.01532-0.001306 0.030382-0.003906 0.044922-6.08e-4 0.47295 1.56e-4 0.94514 0.001953 1.418 0.0017 0.0119 0.001953 0.024709 0.001953 0.037109v0.49023 0.009766c0.06544 0.41499 0.01707 0.86378-0.15039 1.25h2.6504c0.27614-3.1e-5 0.5-0.22386 0.5-0.5v-5.1582c0-0.31237-0.15611-0.60407-0.41602-0.77734l-2.168-1.4453c-0.12198-0.081748-0.26527-0.12589-0.41211-0.12695zm-4.7539 0.0078125h0.5c0.1385 0 0.25 0.1115 0.25 0.25v0.5c0 0.1385-0.1115 0.25-0.25 0.25h-0.5c-0.1385 0-0.25-0.1115-0.25-0.25v-0.5c0-0.1385 0.1115-0.25 0.25-0.25zm2 0h0.5c0.1385 0 0.25 0.1115 0.25 0.25v0.5c0 0.1385-0.1115 0.25-0.25 0.25h-0.5c-0.1385 0-0.25-0.1115-0.25-0.25v-0.5c0-0.1385 0.1115-0.25 0.25-0.25zm-9.5898 1c-0.36608 0-0.66016 0.29407-0.66016 0.66016v5.6797c0 0.36608 0.29407 0.66016 0.66016 0.66016h5.6797c0.36608 0 0.66016-0.29407 0.66016-0.66016v-5.6797c0-0.36608-0.29407-0.66016-0.66016-0.66016h-5.6797zm0.58984 1h0.5c0.1385 0 0.25 0.1115 0.25 0.25v0.5c0 0.1385-0.1115 0.25-0.25 0.25h-0.5c-0.1385 0-0.25-0.1115-0.25-0.25v-0.5c0-0.1385 0.1115-0.25 0.25-0.25zm2 0h0.5c0.1385 0 0.25 0.1115 0.25 0.25v0.5c0 0.1385-0.1115 0.25-0.25 0.25h-0.5c-0.1385 0-0.25-0.1115-0.25-0.25v-0.5c0-0.1385 0.1115-0.25 0.25-0.25zm2 0h0.5c0.1385 0 0.25 0.1115 0.25 0.25v0.5c0 0.1385-0.1115 0.25-0.25 0.25h-0.5c-0.1385 0-0.25-0.1115-0.25-0.25v-0.5c0-0.1385 0.1115-0.25 0.25-0.25zm5 0h0.5c0.1385 0 0.25 0.1115 0.25 0.25v0.5c0 0.1385-0.1115 0.25-0.25 0.25h-0.5c-0.1385 0-0.25-0.1115-0.25-0.25v-0.5c0-0.1385 0.1115-0.25 0.25-0.25zm4 0h0.5c0.1385 0 0.25 0.1115 0.25 0.25v0.5c0 0.1385-0.1115 0.25-0.25 0.25h-0.5c-0.1385 0-0.25-0.1115-0.25-0.25v-0.5c0-0.1385 0.1115-0.25 0.25-0.25zm-13 2h0.5c0.1385 0 0.25 0.1115 0.25 0.25v0.5c0 0.1385-0.1115 0.25-0.25 0.25h-0.5c-0.1385 0-0.25-0.1115-0.25-0.25v-0.5c0-0.1385 0.1115-0.25 0.25-0.25zm2 0h0.5c0.1385 0 0.25 0.1115 0.25 0.25v0.5c0 0.1385-0.1115 0.25-0.25 0.25h-0.5c-0.1385 0-0.25-0.1115-0.25-0.25v-0.5c0-0.1385 0.1115-0.25 0.25-0.25zm2 0h0.5c0.1385 0 0.25 0.1115 0.25 0.25v0.5c0 0.1385-0.1115 0.25-0.25 0.25h-0.5c-0.1385 0-0.25-0.1115-0.25-0.25v-0.5c0-0.1385 0.1115-0.25 0.25-0.25zm5 0h0.5c0.1385 0 0.25 0.1115 0.25 0.25v0.5c0 0.1385-0.1115 0.25-0.25 0.25h-0.5c-0.1385 0-0.25-0.1115-0.25-0.25v-0.5c0-0.1385 0.1115-0.25 0.25-0.25zm4 0h0.5c0.1385 0 0.25 0.1115 0.25 0.25v0.5c0 0.1385-0.1115 0.25-0.25 0.25h-0.5c-0.1385 0-0.25-0.1115-0.25-0.25v-0.5c0-0.1385 0.1115-0.25 0.25-0.25zm-13 2h0.5c0.1385 0 0.25 0.1115 0.25 0.25v0.5c0 0.1385-0.1115 0.25-0.25 0.25h-0.5c-0.1385 0-0.25-0.1115-0.25-0.25v-0.5c0-0.1385 0.1115-0.25 0.25-0.25zm2 0h0.5c0.1385 0 0.25 0.1115 0.25 0.25v0.5c0 0.1385-0.1115 0.25-0.25 0.25h-0.5c-0.1385 0-0.25-0.1115-0.25-0.25v-0.5c0-0.1385 0.1115-0.25 0.25-0.25zm2 0h0.5c0.1385 0 0.25 0.1115 0.25 0.25v0.5c0 0.1385-0.1115 0.25-0.25 0.25h-0.5c-0.1385 0-0.25-0.1115-0.25-0.25v-0.5c0-0.1385 0.1115-0.25 0.25-0.25zm5 0h0.5c0.1385 0 0.25 0.1115 0.25 0.25v0.5c0 0.1385-0.1115 0.25-0.25 0.25h-0.5c-0.1385 0-0.25-0.1115-0.25-0.25v-0.5c0-0.1385 0.1115-0.25 0.25-0.25zm4 0h0.5c0.1385 0 0.25 0.1115 0.25 0.25v0.5c0 0.1385-0.1115 0.25-0.25 0.25h-0.5c-0.1385 0-0.25-0.1115-0.25-0.25v-0.5c0-0.1385 0.1115-0.25 0.25-0.25z" fill="#555761" style="-inkscape-stroke:none"/></svg>
