<?xml version="1.0" encoding="UTF-8"?>
<svg width="16" height="16" version="1.1" xmlns="http://www.w3.org/2000/svg" xmlns:cc="http://creativecommons.org/ns#" xmlns:dc="http://purl.org/dc/elements/1.1/" xmlns:rdf="http://www.w3.org/1999/02/22-rdf-syntax-ns#">
 <metadata>
  <rdf:RDF>
   <cc:Work rdf:about="">
    <dc:format>image/svg+xml</dc:format>
    <dc:type rdf:resource="http://purl.org/dc/dcmitype/StillImage"/>
   </cc:Work>
  </rdf:RDF>
 </metadata>
 <path d="m4 0c-1.662 0-3 1.338-3 3v0.99805 0.0019531 7c0 1.2896 0.80574 2.3848 1.9434 2.8105l0.056641 0.009765v1.5195c0 0.36608 0.29407 0.66016 0.66016 0.66016h0.67969c0.36608 0 0.66016-0.29407 0.66016-0.66016v-1.3398h6v1.3398c0 0.36608 0.29407 0.66016 0.66016 0.66016h0.67969c0.36608 0 0.66016-0.29407 0.66016-0.66016v-1.5195l0.056641-0.009765c1.1375-0.42567 1.9434-1.5209 1.9434-2.8105v-7-0.0019531-0.99805c0-1.662-1.338-3-3-3h-1.0742-5.8516-1.0742zm2.5 1h3c0.277 0 0.5 0.223 0.5 0.5s-0.223 0.5-0.5 0.5h-3c-0.277 0-0.5-0.223-0.5-0.5s0.223-0.5 0.5-0.5zm-2.4785 2h7.957c1.1204 0 2.0247 1.1068 2.0215 2.4824l-0.005859 2.5254c4.95e-4 0.55189-0.56306 0.99219-1.1152 0.99219h-9.7578c-0.55228 0-1.1185-0.43898-1.1191-0.99023l-0.0019531-2.5273c-0.00106-1.3756 0.90099-2.4824 2.0215-2.4824zm8.168 7.4805c0.39181 0.0149 0.69878 0.21622 0.77734 0.50976 0.10788 0.40075-0.23874 0.8419-0.77344 0.98438-0.5332 0.14302-1.0525-0.065063-1.1602-0.46484-0.10788-0.40075 0.23874-0.8419 0.77344-0.98438 0.08413-0.02279 0.17014-0.037229 0.25586-0.042969 0.04262-0.0028 0.085033-0.003453 0.12695-0.001953zm-8.3789 0.001953c0.12636-0.0052 0.25642 0.009399 0.38281 0.042969 0.5347 0.14247 0.88132 0.58362 0.77344 0.98438-0.10767 0.39975-0.62683 0.60786-1.1602 0.46484-0.5347-0.14247-0.88132-0.58362-0.77344-0.98438 0.079469-0.2927 0.38625-0.49311 0.77734-0.50781z" fill="#555761" style="-inkscape-stroke:none;font-variation-settings:normal"/>
</svg>
