<?xml version="1.0" encoding="UTF-8"?>
<svg width="16" height="16" version="1.1" xml:space="preserve" xmlns="http://www.w3.org/2000/svg"><path d="m4 0c-1.108 0-1.908 0.89583-2 2l-1 12c-0.092014 1.1042 0.892 2 2 2h10c1.108 0 2.092-0.89583 2-2l-1-12c-0.092014-1.1042-0.892-2-2-2zm-0.27734 1h0.0625c0.277 0 0.4827 0.22103 0.46289 0.49609l-0.93555 13.008c-0.019806 0.27507-0.25816 0.49609-0.53516 0.49609h-0.0625c-0.277 0-0.4827-0.22103-0.46289-0.49609l0.93555-13.008c0.019806-0.27507 0.25816-0.49609 0.53516-0.49609zm3.7773 0h1c0.277 0 0.5 0.223 0.5 0.5v1.5h-2v-1.5c0-0.277 0.223-0.5 0.5-0.5zm4.7148 0h0.0625c0.277 0 0.51535 0.22103 0.53516 0.49609l0.93555 13.008c0.019806 0.27507-0.18589 0.49609-0.46289 0.49609h-0.0625c-0.277 0-0.51535-0.22103-0.53516-0.49609l-0.93555-13.008c-0.019806-0.27507 0.18589-0.49609 0.46289-0.49609zm-5.2148 3h2v2h-2zm0 3h2v2h-2zm0 3h2v2h-2zm0 3h2v1.5c0 0.277-0.223 0.5-0.5 0.5h-1c-0.277 0-0.5-0.223-0.5-0.5z" fill="#555761" style="-inkscape-stroke:none"/></svg>
