<?xml version="1.0" encoding="UTF-8"?>
<svg width="16" height="16" version="1.1" xmlns="http://www.w3.org/2000/svg" xmlns:cc="http://creativecommons.org/ns#" xmlns:dc="http://purl.org/dc/elements/1.1/" xmlns:rdf="http://www.w3.org/1999/02/22-rdf-syntax-ns#">
 <metadata>
  <rdf:RDF>
   <cc:Work rdf:about="">
    <dc:format>image/svg+xml</dc:format>
    <dc:type rdf:resource="http://purl.org/dc/dcmitype/StillImage"/>
   </cc:Work>
  </rdf:RDF>
 </metadata>
 <path d="m4.4805 0c-0.2667 0-0.48047 0.21376-0.48047 0.48047v0.039062c0 0.2667 0.21376 0.48047 0.48047 0.48047h1.5215l0.26367 1h-0.19141c-2.2575 0-4.0742 2.2475-4.0742 5.0391v1.5586 0.36328 2.0391c0 1.2896 0.8059 2.3848 1.9434 2.8105l-0.87109 1.4297a0.5 0.5 0 0 0 0.16797 0.6875 0.5 0.5 0 0 0 0.6875-0.16797l1.0723-1.7598h1.0742 3.8516 1.0742l1.0723 1.7598a0.5 0.5 0 0 0 0.6875 0.16797 0.5 0.5 0 0 0 0.16797-0.6875l-0.87109-1.4297c1.1375-0.42574 1.9434-1.5209 1.9434-2.8105v-2.0391-0.36328-1.5586c0-2.7915-1.8167-5.0391-4.0742-5.0391h-0.18359l0.26367-1h1.5137c0.2667 0 0.48047-0.21376 0.48047-0.48047v-0.039062c0-0.2667-0.21376-0.48047-0.48047-0.48047h-7.0391zm2.5566 1h1.9336l-0.26367 1h-1.4062l-0.26367-1zm2.7598 2c1.9908-0.043163 3.2009 2.0955 3.1953 3.8809l0.001953 2.127c4.13e-4 0.55189-0.56295 0.99219-1.1152 0.99219h-7.7578c-0.55228 0-1.1185-0.43898-1.1191-0.99023l-0.0019531-1.6289c-0.11668-1.8085 0.80706-4.0373 2.7793-4.3613l4.0176-0.019531zm1.3926 7.9805a0.75 1 75 0 1 0.77734 0.50976 0.75 1 75 0 1-0.77344 0.98438 0.75 1 75 0 1-1.1602-0.46484 0.75 1 75 0 1 0.77344-0.98438 0.75 1 75 0 1 0.25586-0.042969 0.75 1 75 0 1 0.12695-0.001953zm-6.3789 0.001953a1 0.75 15 0 1 0.38281 0.042969 1 0.75 15 0 1 0.77344 0.98438 1 0.75 15 0 1-1.1602 0.46484 1 0.75 15 0 1-0.77344-0.98438 1 0.75 15 0 1 0.77734-0.50781z" fill="#555761" stop-color="#000000" style="-inkscape-stroke:none;font-variation-settings:normal"/>
</svg>
