<?xml version="1.0" encoding="UTF-8"?>
<svg width="16" height="16" version="1.1" xml:space="preserve" xmlns="http://www.w3.org/2000/svg" xmlns:cc="http://creativecommons.org/ns#" xmlns:dc="http://purl.org/dc/elements/1.1/" xmlns:rdf="http://www.w3.org/1999/02/22-rdf-syntax-ns#"><metadata><rdf:RDF><cc:Work rdf:about=""><dc:format>image/svg+xml</dc:format><dc:type rdf:resource="http://purl.org/dc/dcmitype/StillImage"/></cc:Work></rdf:RDF></metadata><path transform="scale(1,-1)" d="m2.5 0c-0.20172 0-0.3964-0.22252-0.41211-0.49805-0.057674-1.0116-0.087891-3.1281-0.087891-3.502v-1.0742c0-1.3582 0.41644-2.5091 1-2.9355v-6.4902c0-0.831 0.669-1.5 1.5-1.5s1.5 0.669 1.5 1.5v6.4902c0.58404 0.42592 1 1.5766 1 2.9355v1.0742c0 0.37409-0.032086 2.4932-0.089844 3.5039-0.015674 0.27426-0.26878 0.49609-0.54492 0.49609a0.43783 0.43783 0 0 1-0.36523-0.5v-3.5c0-0.277-0.223-0.5-0.5-0.5s-0.5 0.223-0.5 0.5v3.5a0.5 0.5 0 0 1-0.5 0.5 0.5 0.5 0 0 1-0.5-0.5v-3.4355c0-0.277-0.223-0.5-0.5-0.5s-0.5 0.223-0.5 0.5v3.4355a0.5 0.5 0 0 1-0.5 0.5zm10 0c-1.933 0-3-3.5147-3-6 0-1.74 0.52299-2.6922 1.5-3v-6.0215c0-0.54242 0.4361-0.97852 0.97852-0.97852h0.042968c0.54242 0 0.97852 0.4361 0.97852 0.97852v14.521a0.5 0.5 0 0 1-0.5 0.5z" fill="#555761" stroke-width=".99999" style="-inkscape-stroke:none"/></svg>
