<?xml version="1.0" encoding="UTF-8" standalone="no"?>
<svg
   xmlns:dc="http://purl.org/dc/elements/1.1/"
   xmlns:cc="http://creativecommons.org/ns#"
   xmlns:rdf="http://www.w3.org/1999/02/22-rdf-syntax-ns#"
   xmlns:svg="http://www.w3.org/2000/svg"
   xmlns="http://www.w3.org/2000/svg"
   height="16"
   width="16"
   version="1.1"
   id="svg6">
  <metadata
     id="metadata12">
    <rdf:RDF>
      <cc:Work
         rdf:about="">
        <dc:format>image/svg+xml</dc:format>
        <dc:type
           rdf:resource="http://purl.org/dc/dcmitype/StillImage" />
        <dc:title></dc:title>
      </cc:Work>
    </rdf:RDF>
  </metadata>
  <defs
     id="defs10" />
  <path
     style="color:#000000;font-weight:400;line-height:normal;font-family:sans-serif;font-variant-ligatures:normal;font-variant-position:normal;font-variant-caps:normal;font-variant-numeric:normal;font-variant-alternates:normal;font-feature-settings:normal;text-indent:0;text-align:start;text-decoration:none;text-decoration-line:none;text-decoration-style:solid;text-decoration-color:#000000;text-transform:none;text-orientation:mixed;white-space:normal;shape-padding:0;overflow:visible;isolation:auto;mix-blend-mode:normal;fill:#555761"
     d="m 3.9696826,0.00842865 c -0.1267161,-0.016682 -0.2612143,0.015296 -0.3710937,0.099609 -0.2197589,0.1686269 -0.2604238,0.481413 -0.091797,0.7011719 L 4.4138977,1.9999998 H 3 c -0.038088,0 -0.071816,0.013492 -0.1074219,0.021484 -0.016889,0.00295 -0.034039,0.00407 -0.050781,0.00977 -0.034665,0.01164 -0.064939,0.028331 -0.095703,0.046875 -0.016444,0.00986 -0.035188,0.013426 -0.050781,0.025391 -0.00876,0.00672 -0.013295,0.016274 -0.021484,0.023437 -0.026871,0.023477 -0.047051,0.051379 -0.068359,0.080078 -0.017757,0.023815 -0.035796,0.046163 -0.048828,0.072266 -0.013851,0.027808 -0.020763,0.057398 -0.029297,0.087891 -0.00978,0.034573 -0.019315,0.067711 -0.021484,0.1035156 -6.234e-4,0.010213 -0.00586,0.018905 -0.00586,0.029292 0,0.032494 0.011713,0.061062 0.017578,0.091797 0.00319,0.022894 0.00596,0.045721 0.013672,0.068359 0.011863,0.034889 0.029967,0.064799 0.048828,0.095703 0.00848,0.016138 0.011923,0.033822 0.023437,0.048828 l 4.396485,5.7304695 V 14 H 4.5078125 c -0.6666664,0 -0.6666664,1 0,1 h 5.9999995 c 0.666666,0 0.666668,-1 0,-1 H 8 V 8.5351559 l 4.396484,-5.7304686 c 0.01152,-0.015007 0.01496,-0.03269 0.02344,-0.048828 6.83e-4,-0.0013 0.0012,-0.00263 0.002,-0.00391 0.02941,-0.049149 0.04942,-0.1018231 0.06055,-0.1601562 0.0016,-0.011702 0.0045,-0.02322 0.0059,-0.035156 0.002,-0.019465 0.01163,-0.036528 0.01163,-0.056637 0,-0.010388 -0.0052,-0.01907 -0.0059,-0.029297 -0.0022,-0.036187 -0.01206,-0.069848 -0.02149,-0.1035156 -0.0085,-0.030492 -0.01545,-0.060082 -0.0293,-0.087891 -0.01314,-0.026383 -0.03141,-0.048813 -0.04883,-0.072266 -0.02131,-0.028699 -0.04149,-0.056601 -0.06836,-0.080078 -0.0082,-0.00716 -0.01273,-0.016717 -0.02148,-0.023437 -0.0156,-0.011965 -0.03434,-0.015527 -0.05078,-0.025391 -0.04506,-0.027163 -0.09351,-0.044749 -0.146484,-0.056641 -0.01701,-0.00302 -0.03337,-0.00772 -0.05078,-0.00977 C 12.03726,2.0094435 12.02011,2.0000005 12,2.0000005 H 5.6756164 L 4.2997608,0.19983495 C 4.2156575,0.08979452 4.0963988,0.02511115 3.9696826,0.00842865 Z m 0.043989,2.99157115 h 1.1678039 l 1.9978373,2.6101238 c 0.168627,0.2197589 0.481413,0.2604238 0.7011719,0.091797 0.2197589,-0.168627 0.2623769,-0.4814131 0.09375,-0.701172 L 6.4431945,2.9999998 H 10.986328 L 7.5,7.5429686 Z"
     id="path833-1" />
</svg>
