<?xml version="1.0" encoding="UTF-8" standalone="no"?>
<svg
   height="16"
   width="16"
   version="1.1"
   id="svg8"
   sodipodi:docname="portal-background-symbolic.svg"
   inkscape:version="1.4.2 (ebf0e940d0, 2025-05-08)"
   xml:space="preserve"
   xmlns:inkscape="http://www.inkscape.org/namespaces/inkscape"
   xmlns:sodipodi="http://sodipodi.sourceforge.net/DTD/sodipodi-0.dtd"
   xmlns="http://www.w3.org/2000/svg"
   xmlns:svg="http://www.w3.org/2000/svg"
   xmlns:rdf="http://www.w3.org/1999/02/22-rdf-syntax-ns#"
   xmlns:cc="http://creativecommons.org/ns#"
   xmlns:dc="http://purl.org/dc/elements/1.1/"><sodipodi:namedview
     id="namedview1"
     pagecolor="#ffffff"
     bordercolor="#000000"
     borderopacity="0.25"
     inkscape:showpageshadow="2"
     inkscape:pageopacity="0.0"
     inkscape:pagecheckerboard="0"
     inkscape:deskcolor="#d1d1d1"
     showgrid="false"
     inkscape:current-layer="svg8"
     showguides="false"><inkscape:grid
       id="grid1"
       units="px"
       originx="-26"
       originy="0"
       spacingx="0.5"
       spacingy="0.5"
       empcolor="#0099e5"
       empopacity="0.30196078"
       color="#0099e5"
       opacity="0.078431373"
       empspacing="2"
       enabled="true"
       visible="false" /><inkscape:page
       x="0"
       y="0"
       width="16"
       height="16"
       id="page34"
       margin="0"
       bleed="0" /></sodipodi:namedview><metadata
     id="metadata14"><rdf:RDF><cc:Work
         rdf:about=""><dc:format>image/svg+xml</dc:format><dc:type
           rdf:resource="http://purl.org/dc/dcmitype/StillImage" /></cc:Work></rdf:RDF></metadata><defs
     id="defs12" /><path
     id="rect30-0"
     style="baseline-shift:baseline;display:inline;overflow:visible;opacity:1;vector-effect:none;fill:#555761;stroke-linecap:round;stroke-linejoin:round;enable-background:accumulate;stop-color:#000000;stop-opacity:1"
     d="M 6,4 C 5.454649,4 5,4.4546486 5,5 V 7 C 5,7.5453514 5.454649,8 6,8 6.545351,8 7,7.5453514 7,7 V 5 C 7,4.4546486 6.545351,4 6,4 Z m 4,0 C 9.454649,4 9,4.4546486 9,5 v 2 c 0,0.5453514 0.454649,1 1,1 0.545351,0 1,-0.4546486 1,-1 V 5 C 11,4.4546486 10.545351,4 10,4 Z" /><path
     style="opacity:1;fill:none;fill-opacity:1;stroke:#555761;stroke-linecap:round;stroke-linejoin:round;stroke-opacity:1"
     d="m 3.5,14 1,-3.5"
     id="path34"
     sodipodi:nodetypes="cc" /><path
     style="opacity:1;fill:none;fill-opacity:1;stroke:#555761;stroke-linecap:round;stroke-linejoin:round;stroke-opacity:1"
     d="m 12.5,14 -1,-3.5"
     id="path35"
     sodipodi:nodetypes="cc" /><path
     id="path1"
     style="opacity:1;fill:none;stroke:#555761;stroke-linecap:round;stroke-linejoin:round;stroke-opacity:1"
     d="M 12.5,5 C 12.5,2.5147186 10.485281,0.5 8,0.5 5.514719,0.5 3.5,2.5147186 3.5,5"
     sodipodi:nodetypes="csc" /><path
     id="path6"
     style="opacity:1;fill:none;stroke:#555761;stroke-linecap:round;stroke-linejoin:round;stroke-opacity:1"
     d="m 3.5,5 c 0,2.5 -0.5,5 -1.5,6.5 -0.828427,0 -1.5,0.671573 -1.5,1.5 0,0.828427 0.671573,1.5 1.5,1.5 H 3 C 3.727379,14.499972 4.436678,14.273324 5.029297,13.851562 5.668565,14.877028 6.791594,15.500195 8,15.5 9.208406,15.500195 10.331435,14.877028 10.970703,13.851562 11.563322,14.273324 12.272621,14.499972 13,14.5 h 1 c 0.828427,0 1.5,-0.671573 1.5,-1.5 0,-0.828427 -0.671573,-1.5 -1.5,-1.5 C 13,10 12.5,7.5 12.5,5"
     sodipodi:nodetypes="ccsscccccsscc" /></svg>
