<?xml version="1.0" encoding="UTF-8" standalone="no"?>
<svg
   height="16"
   width="16"
   version="1.1"
   id="svg8"
   xmlns="http://www.w3.org/2000/svg"
   xmlns:svg="http://www.w3.org/2000/svg">
  <defs
     id="defs12" />
  <path
     id="rect1405-1-3"
     style="font-variation-settings:normal;opacity:1;vector-effect:none;fill:#555761;fill-opacity:1;stroke:none;stroke-width:0.992;stroke-linecap:square;stroke-linejoin:miter;stroke-miterlimit:4;stroke-dasharray:none;stroke-dashoffset:0;stroke-opacity:1;-inkscape-stroke:none;marker:none;stop-color:#000000;stop-opacity:1"
     d="M 8 2 C 3.5680001 2 0 5.6 0 8 C 0 10.399999 3.5680001 14 8 14 C 12.432 14 16 10.399999 16 8 C 16 5.6 12.432 2 8 2 z M 7.6640625 3.0078125 C 9.3506502 2.9312143 11.040262 3.461105 12.421875 4.421875 C 13.629983 5.3076894 14.949934 6.5384981 14.992188 8.1386719 C 14.637486 10.004587 12.999057 11.335073 11.400391 12.183594 C 8.6460959 13.632251 5.101991 13.067429 2.8222656 10.990234 C 1.8458886 10.082992 0.66022555 8.7714118 1.1230469 7.3300781 C 2.2048258 4.7833215 4.9530782 3.1650797 7.6640625 3.0078125 z M 8 5 A 2.9999999 2.9999999 0 0 0 5 8 A 2.9999999 2.9999999 0 0 0 8 11 A 2.9999999 2.9999999 0 0 0 11 8 A 2.9999999 2.9999999 0 0 0 8 5 z M 8 6 A 2 2 0 0 1 10 8 A 2 2 0 0 1 8 10 A 2 2 0 0 1 6 8 A 2 2 0 0 1 8 6 z " />
</svg>
