<?xml version="1.0" encoding="UTF-8" standalone="no"?>
<svg
   height="16"
   width="16"
   version="1.1"
   id="svg8"
   xmlns="http://www.w3.org/2000/svg"
   xmlns:svg="http://www.w3.org/2000/svg">
  <defs
     id="defs12" />
  <path
     id="rect1405-1-3"
     style="font-variation-settings:normal;opacity:0.5;vector-effect:none;fill:#555761;fill-opacity:1;stroke:none;stroke-width:1;stroke-linecap:butt;stroke-linejoin:miter;stroke-miterlimit:4;stroke-dasharray:none;stroke-dashoffset:0;stroke-opacity:1;-inkscape-stroke:none;marker:none;stop-color:#000000;stop-opacity:1"
     d="M 8 2 C 6.0821358 2 4.326348 2.6735194 2.9511719 3.6328125 L 3.6660156 4.3496094 L 3.6679688 4.3496094 C 4.8534619 3.5619811 6.2635716 3.0890565 7.6640625 3.0078125 C 9.3506502 2.9312143 11.040262 3.461105 12.421875 4.421875 C 13.629983 5.3076894 14.949933 6.5384981 14.992188 8.1386719 C 14.642335 9.9790739 13.044432 11.298509 11.466797 12.148438 L 12.207031 12.890625 C 14.486548 11.635524 16 9.562929 16 8 C 16 5.6 12.432 2 8 2 z M 1.9726562 4.4199219 C 0.74319048 5.5589066 0 6.9045925 0 8 C 0 10.399999 3.5680001 14 8 14 C 9.0615791 14 10.072767 13.794386 10.998047 13.447266 L 10.222656 12.669922 C 7.6939544 13.448512 4.7877383 12.781095 2.8222656 10.990234 C 1.8458886 10.082992 0.66022553 8.7714118 1.1230469 7.3300781 C 1.480647 6.4882052 2.0194251 5.7486197 2.6796875 5.1289062 L 1.9726562 4.4199219 z M 8 5 A 2.9999999 2.9999999 0 0 0 5.5644531 6.2480469 L 6.2871094 6.96875 A 2 2 0 0 1 8 6 A 2 2 0 0 1 10 8 A 2 2 0 0 1 9.03125 9.7128906 L 9.7519531 10.435547 A 2.9999999 2.9999999 0 0 0 11 8 A 2.9999999 2.9999999 0 0 0 8 5 z M 5.0429688 7.4902344 A 2.9999999 2.9999999 0 0 0 5 8 A 2.9999999 2.9999999 0 0 0 8 11 A 2.9999999 2.9999999 0 0 0 8.5097656 10.957031 L 7.484375 9.9316406 A 2 2 0 0 1 6.0683594 8.515625 L 5.0429688 7.4902344 z " />
  <rect
     style="font-variation-settings:normal;vector-effect:none;fill:#555761;fill-opacity:1;stroke:none;stroke-width:0.992001;stroke-linecap:square;stroke-linejoin:miter;stroke-miterlimit:4;stroke-dasharray:none;stroke-dashoffset:0;stroke-opacity:1;-inkscape-stroke:none;marker:none;stop-color:#000000"
     id="rect2480"
     width="1.248"
     height="19.799999"
     x="-0.62576789"
     y="1.4161836"
     rx="0.5"
     ry="0.5"
     transform="rotate(-45)" />
  <rect
     style="font-variation-settings:normal;vector-effect:none;fill:#555761;fill-opacity:1;stroke:none;stroke-width:0.992001;stroke-linecap:square;stroke-linejoin:miter;stroke-miterlimit:4;stroke-dasharray:none;stroke-dashoffset:0;stroke-opacity:1;-inkscape-stroke:none;marker:none;stop-color:#000000"
     id="rect2480-5"
     width="1.248"
     height="19.799999"
     x="-0.62576789"
     y="1.4161836"
     rx="0.5"
     ry="0.5"
     transform="rotate(-45)" />
</svg>
